<svg xmlns="http://www.w3.org/2000/svg" viewBox="0 0 64 64" role="img" aria-labelledby="brandTitle">
  <title id="brandTitle">UD Marketing Tools</title>
  <rect width="64" height="64" rx="14" fill="#101828"/>
  <path d="M31 14v37M31 14h9c11 0 18 7 18 18s-7 19-18 19h-9"
    fill="none" stroke="#2dd4bf" stroke-width="8" stroke-linecap="round" stroke-linejoin="round"/>
  <path d="M31 14v37M31 14h9c11 0 18 7 18 18s-7 19-18 19h-9"
    fill="none" stroke="#101828" stroke-width="3" stroke-linecap="round" stroke-linejoin="round"/>
  <path d="M11 14v21c0 11 7 18 18 18s18-7 18-18V23"
    fill="none" stroke="#ffffff" stroke-width="8" stroke-linecap="round" stroke-linejoin="round"/>
  <path d="M11 14v21c0 11 7 18 18 18s18-7 18-18V23"
    fill="none" stroke="#101828" stroke-width="3" stroke-linecap="round" stroke-linejoin="round"/>
  <path d="M47 35v8" fill="none" stroke="#2dd4bf" stroke-width="8" stroke-linecap="round"/>
  <path d="M47 35v8" fill="none" stroke="#101828" stroke-width="3" stroke-linecap="round"/>
</svg>
